<svg id="Layer_1" data-name="Layer 1" xmlns="http://www.w3.org/2000/svg" viewBox="0 0 835.4 550.05"><defs><style>.cls-1{fill:#fff;}</style></defs><title>favicon</title><path class="cls-1" d="M1566.55-1223.68c0-4.29.37-44.11,15.64-52.66a19.37,19.37,0,0,1,9.69-2.34c8.73,0,17.46,2.63,23.57,2.63,14.84,0,20.94-14,20.94-24.45,0-13.09-6.1-23.57-20.94-23.57-34,0-75.07,3.5-115.24,3.5-76.82,0-107.37-3.5-153.63-3.5-34,0-35.8,13.09-41.91,44.52-15.7,82.94-30.55,150.15-48.89,212.13-12.2,41-18.33,55-35.78,55-14,0-21-9.59-35.79-55.86-18.33-55-42.78-165-52.38-211.26-7-35.79-14-44.52-42.77-44.52-32.3,0-48,3.5-94.29,3.5-48.88,0-118.71-3.5-173.72-3.5-13.95,0-20.06,10.48-20.06,23.57,0,10.48,6.11,24.45,20.06,24.45,6.12,0,14.85-2.63,23.58-2.63,28.8,0,33.16,30.56,33.16,64.61,0,266.25-18.32,340.44-52.37,382.35C810.57-812.51,801-807.26,801-792.43c0,11.35,8.72,18.34,20.06,18.34,21.82,0,60.24-1.76,109.13-1.76,43.64,0,68.1,1.76,82,1.76s19.21-14,19.21-19.21c0-12.22-.87-20.07-26.19-36.67C942.35-875.35,924-995.83,924-1194c0-22.69,3.49-36.66,15.71-36.66,7.86,0,15.71,11.34,22.69,26.19,36.67,75.94,98.66,288.07,126.59,392.83,8.73,32.3,8.73,36.66,76.82,36.66,62.85,0,78.56-2.61,84.67-36.66,26.19-136.18,66.35-309.9,90.78-385.84,7.87-23.57,19.22-34,27.08-34,15.7,0,17.45,11.35,17.45,45.39,0,173.71-1.75,261.89-6.11,310.78-3.51,41-6.12,55.87-27.93,55.87-4.37,0-14.84-1.76-22.71-1.76-14,0-20.08,11.35-20.08,23.57,0,13.1,6.12,23.58,20.08,23.58,31.44,0,73.34-1.76,137.94-1.76,66.35,0,120.47,1.76,148.4,1.76,14.84,0,20.94-10.48,20.94-23.58,0-12.22-6.1-23.57-20.94-23.57-7,0-16.58,1.76-21,1.76-6.29,0-11.14-1.24-14.88-4-14.38-10.52-13.25-44.8-13.07-51.9,1.89-70.21-149.48-106.31-150.85-170C1414.32-1109.61,1566.48-1152.89,1566.55-1223.68Z" transform="translate(-800.99 1324.07)"/></svg>