<?xml version="1.0" encoding="utf-8"?>
<!-- Generator: Adobe Illustrator 23.0.1, SVG Export Plug-In . SVG Version: 6.00 Build 0)  -->
<svg version="1.1" id="Layer_1" xmlns="http://www.w3.org/2000/svg" xmlns:xlink="http://www.w3.org/1999/xlink" x="0px" y="0px"
	 viewBox="0 0 1144.9 1800" style="enable-background:new 0 0 1144.9 1800;" xml:space="preserve">
<style type="text/css">
	.st0{fill:#FFFFFF;}
</style>
<title>logo_big_cut_phone</title>
<path class="st0" d="M455.1,159.7c-59.5,28.6,23.1,240.9-37.8,270.1c-21.4,10.3-32.9,2.2-50-29.6c-34.3-64.3-91.2-179.1-124-259.5
	c-12.6-31.4-20.6-64.1,22.9-85.1c15.9-7.7,30-10.2,38.3-14.2c12.4-6,10.6-20.4,6.9-28c-6-12.4-16.2-16.1-25.9-11.5
	c-53.9,26-104.4,51.9-163.1,80.2c-40.8,19.6-76.7,35.2-112.6,52.5c-9,4.3-12.6,16.3-7.6,26.7c4,8.3,14.2,17.1,26,11.4
	c3.5-1.7,8.7-6.7,14.2-9.4c17.3-8.3,29.3,13.1,41.3,34.6c46.1,81.7,101.5,204,132.3,275c14.3,33.1,16.4,46.6-0.8,54.9
	c-2.1,1-10.7,2.6-14.1,4.3c-9,4.3-12.6,16.3-7.3,27.3c4,8.3,13.8,16.4,25.6,10.7c19.3-9.3,76.7-38.7,116.1-57.6
	c79.5-38.2,194.9-92,235.7-111.6c6.9-3.3,13.2-14.9,8.6-24.6c-9-18.7-28-47.7-49.3-92c-23.6-49.1-44.1-102.2-50.7-116
	C474,156.6,466.2,154.4,455.1,159.7z"/>
<path class="st0" d="M899.6,612.9c-10.8-7.2-21.5-2.2-27.8,7.4c-8.5,12.9-13.1,43.7-22.8,58.4c-11.4,17.3-24.1,25.5-38.8,15.8
	c-12.9-8.5-12.5-22.9,1.5-44.1c11.8-17.9,51.5-72.7,84.8-123.2c46.4-70.4,54.8-132-65.6-211.4c-121-79.8-198.2-70-231.9-18.8
	c-29.1,44.2-16.2,80.3,31.2,111.5c45.5,30,85.1,31.2,109.1-5.3c16.4-25,11.5-46.6-7.1-64.4c-9.6-9.1-9.7-17.4-6.3-22.6
	c5.1-7.7,13-12.6,36,2.6c48.6,32,65.4,65.2,33.8,113.2c-36.7,55.8-55.2,62.9-146.9,18c-68.5-34-134.1-51.6-180.6,18.9
	c-34.6,52.5-32.6,105.3,37.2,151.3c72.4,47.7,129.3,33.7,157.8-2.6c6.6-8.5,12.1-11.3,19.7-6.3c6.4,4.2,6,10.4,1.4,20.2
	c-20.6,45.2-31.6,85.7,26.6,124.1c64.7,42.6,106.7,26.2,168.8-67.9C911.6,639.1,916.2,623.8,899.6,612.9z M621.9,568.6
	c-19.9-13.1-33-30.9-16.5-55.9c19.8-30.1,69.6-27.6,113.2,1.1c12.9,8.5,11.2,19.3,3.2,31.5C697.7,581.9,654.6,590.1,621.9,568.6z"/>
<path class="st0" d="M768.6,872.5c1.3-3.6,13.8-36.5,29.1-39c3-0.4,6-0.1,8.8,1c7.2,2.7,13.7,7.5,18.8,9.4
	c12.3,4.5,21.6-5.2,24.8-14c4-10.9,2.1-21.5-10.1-26c-28.2-10.4-63.5-20-96.7-32.3c-63.8-23.5-88.1-35.7-126.5-49.9
	c-28.2-10.4-33.7-0.1-48.4,24.2c-38.4,64-71.2,115.3-105.4,161.2c-22.7,30.3-32,40.1-46.6,34.7c-11.6-4.3-14.5-14.4-12.6-57.4
	c1.6-51.3,14.9-150.1,21.1-191.5c5.1-31.9,2-41.2-21.9-50c-26.8-9.9-40.9-11.7-79.4-25.9c-40.7-14.8-97.6-39.1-143.2-55.9
	c-11.5-4.2-19.9,2.6-23.9,13.5c-3.2,8.7-2.4,22.2,9.2,26.5c5,1.9,13.1,2.4,20.4,5c23.9,8.8,18.2,35.6,7.8,63.8
	C112.4,891.1,74.5,947,33.4,971.5c-18.1,11.4-27.7,12.8-32.2,25.2c-3.5,9.4,1.6,17.9,11.1,21.3c18.1,6.7,50.5,16.9,91.2,31.8
	c36.3,13.3,56,22.3,67.6,26.6c11.6,4.3,20.2-5.8,21.8-10.1c3.7-10.1,5.4-17-10.5-38.5c-38.3-56.9-16.7-162.6,43.8-327.1
	c6.9-18.9,14.1-29.4,24.3-25.7c6.6,2.4,9.6,14.2,10.8,28.7c7.3,74.3-6,269.5-14.9,364.9c-2.6,29.5-4,33.1,52.6,54
	c52.2,19.2,66.1,21.9,81.6-4.6c63.3-105.1,149.8-237.1,193.3-292.7c13.8-17.2,26.3-22.4,32.9-20c13,4.8,11,14.7,0.6,43
	c-53.1,144.3-81.5,217-100.1,256.3c-15.4,33-22.2,44.5-40.3,37.9c-3.6-1.3-11.7-6-18.3-8.4c-11.6-4.3-20.1,3.3-23.9,13.5
	c-4,10.9-2.1,21.5,9.5,25.7c26.1,9.6,61.4,20.9,115.1,40.7c55.1,20.3,99.5,38.3,122.7,46.8c12.3,4.5,20.6-2.3,24.6-13.2
	c3.7-10.1,2.2-21.5-10.2-26c-5.8-2.1-14.3-3.6-17.9-4.9c-5.2-1.9-8.9-4.4-11.2-7.9c-8.7-13.1,2.7-41.2,5-47.1
	c23-57.7-91.7-134-73.3-187.3C607.3,920.7,746.9,931.3,768.6,872.5z"/>
<path class="st0" d="M1079.5,1233.4c72.5-27.5,83.7-71.1,43.8-176.5c-20.6-54.5-30.4-67.2-49-60.2c-12.1,4.6-14.4,16.1-10.3,26.9
	c5.4,14.4,27.7,36.3,33.9,52.7c7.3,19.4,6.5,34.5-10,40.7c-14.4,5.5-25.9-3.4-34.8-27c-7.6-20.1-28.7-84.3-50.1-140.9
	C973,870.3,928,827.4,793.2,878.5c-135.6,51.4-172.8,119.6-151.1,177c18.7,49.5,55.6,60.1,108.6,40c51-19.3,75.2-50.6,59.7-91.5
	c-10.6-27.9-31.1-36.6-56.5-32c-13,2.5-19.8-2.4-22-8.1c-3.3-8.6-2.6-17.9,23.2-27.7c54.5-20.7,91.2-14.8,111.5,38.9
	c23.7,62.4,18.6,81.5-71.4,129.6c-67.7,35.5-120.4,78.4-90.5,157.4c22.3,58.8,66.2,88.1,144.4,58.5c81.1-30.7,103.1-85,90.4-129.4
	c-3.1-10.3-2.1-16.4,6.5-19.6c7.2-2.7,11.9,1.2,17.2,10.7C987.9,1225.4,1014.2,1258.1,1079.5,1233.4z M875.8,1195.8
	c-22.2,8.4-44.3,8.6-54.9-19.4c-12.8-33.6,18.5-72.5,67.2-91c14.4-5.4,22.2,2.2,27.3,15.9C930.9,1142.1,912.4,1181.9,875.8,1195.8
	L875.8,1195.8z"/>
<path class="st0" d="M443.2,1785.9c27.9,0,48.1,5.5,57.3,14.5h69.7c4.4-14.8,6.4-32.3,6.4-52.9c0-60.6-36-96.6-107.4-96.6
	c-66.7,0-164.9,39.1-213.9,39.1c-23,0-30.7-10.7-30.7-23.8c0-27.6,26.1-43,130.4-43c145.8,0,198.7-46,198.7-146.5
	c0-72.8-41.4-102-71.3-110.4c-11.5-4.6-16.1-9.2-16.1-15.4c0-6.2,3.1-10.7,13.1-10.7c3.1,0,15.3,1.6,27.6,1.6
	c35.3,0,54.5-26.9,54.5-63.7c-0.2-52.8-40.8-88.8-100.6-88.8c-56.8,0-85.1,21.4-85.1,52.9c0,36,25.3,52.2,64.4,57.6
	c13.8,1.5,19.1,6.1,19.1,13c0,6.8-3.1,12.3-16.1,12.3c-22.2,0-61.3-7.6-105.9-7.6c-117.4,0-186.3,44.5-186.3,145
	c0,74.4,35.2,114.3,97.4,120.5c10,1.5,15.4,8.4,15.4,15.4c0,6.2-5.4,12.3-14.6,12.3h-26.8c-59,0-98.1,39.1-98.1,110.4
	c0,35.2,6.8,61.6,21.6,79.7h217.7C390.6,1792.5,417.1,1785.9,443.2,1785.9z M353.4,1354.1c36.8,0,52.9,27.6,52.9,119.7
	c0,84.3-12.3,102.8-50.6,102.8c-51.4,0-54.5-59.8-54.5-129.6C301.3,1368,322,1354.1,353.4,1354.1z"/>
<path class="st0" d="M991.8,1482.9c-12.4,3.9-15.4,15.2-11.9,26.2c4.5,14.7,25.4,38,30.6,54.7c6.1,19.8,4.3,34.8-12.5,40
	c-14.7,4.5-25.6-5-33.1-29.1c-6.3-20.5-23.4-85.9-41.3-143.8c-24.9-80.6-67.2-126.2-204.9-83.5c-138.5,42.9-179.9,108.7-161.8,167.3
	c15.6,50.5,51.7,63.4,106,46.7c52-16.1,78.1-45.9,65.2-87.6c-8.8-28.5-28.7-38.5-54.3-35.4c-13.1,1.7-19.6-3.6-21.4-9.5
	c-2.7-8.8-1.5-18,24.8-26.2c55.7-17.2,91.9-9.1,108.9,45.8c19.7,63.8,13.5,82.5-79.3,124.9c-69.8,31.3-125,70.8-100.1,151.4
	c18.6,60.1,60.6,92.1,140.5,67.3c82.8-25.6,108.2-78.4,98.2-123.6c-2.4-10.5-1.1-16.5,7.7-19.2c7.3-2.3,11.8,2,16.5,11.7
	c21.8,44.7,46.1,78.9,112.8,58.3c74-22.9,88.1-65.8,54.7-173.5C1019.8,1490.2,1010.8,1477,991.8,1482.9z M781.4,1669.2
	c-22.7,7-44.7,5.8-53.6-22.8c-10.6-34.4,22.9-71.3,72.8-86.7c14.6-4.5,22,3.6,26.3,17.5C839.7,1619,818.7,1657.6,781.4,1669.2
	L781.4,1669.2z"/>
</svg>
