<?xml version="1.0" encoding="utf-8"?>
<!-- Generator: Adobe Illustrator 23.0.1, SVG Export Plug-In . SVG Version: 6.00 Build 0)  -->
<svg version="1.1" id="Layer_1" xmlns="http://www.w3.org/2000/svg" xmlns:xlink="http://www.w3.org/1999/xlink" x="0px" y="0px"
	 viewBox="0 0 3664.8 695.7" style="enable-background:new 0 0 3664.8 695.7;" xml:space="preserve">
<style type="text/css">
	.st0{fill:#FFFFFF;}
</style>
<title>logo_big_cut</title>
<path class="st0" d="M465.3,325.6c-75.1,0-95.2,258.4-172,258.4c-27,0-34.9-14-36.7-55c-3.5-82.9-5.2-228.7,0.9-327.4
	c2.6-38.4,10.5-76,65.5-76c20.1,0,35.8,4.4,46.3,4.4c15.7,0,20.9-15.7,20.9-25.3c0-15.7-8.7-24.5-20.9-24.5
	c-68.1,0-132.7,1.7-206.9,1.7c-51.5,0-96-1.7-141.4-1.7c-11.4,0-21,10.5-21,23.6c0,10.5,6.1,24.5,21,24.5c4.4,0,12.2-2.6,19.2-2.6
	c21.8,0,23.6,27.9,25.3,55.9c7,106.5,3.5,259.3,0,347.4c-1.7,41-6.1,55.9-27.9,55.9c-2.6,0-12.2-2.6-16.6-2.6
	c-11.4,0-21,10.5-21,24.4c0,10.5,6.1,23.6,21,23.6c24.4,0,97.8-1.8,147.5-1.8c100.4,0,245.3,1.8,296.8,1.8c8.7,0,20.9-8.7,20.9-21
	c0-23.6-5.2-62.8-5.2-118.7c0-62,5.2-126.6,5.2-144C486.2,331.7,479.3,325.6,465.3,325.6z"/>
<path class="st0" d="M1022.3,385c-14.8,0-21.8,11.3-21.8,24.5c0,17.5,14.9,49.8,14.9,69.8c0,23.6-7,39.3-27.1,39.3
	c-17.5,0-26.2-14-26.2-42.8c0-24.4,3.5-101.3,3.5-170.2c0-96-30.6-159.8-194.7-159.8c-165,0-232.2,57.6-232.2,127.4
	c0,60.2,34.9,86.4,99.5,86.4c62,0,100.4-23.6,100.4-73.3c0-34-18.3-51.5-47.1-56.8c-14.8-2.6-20.1-10.5-20.1-17.5
	c0-10.5,4.4-20.1,35.8-20.1c66.3,0,103,21,103,86.4c0,76-13.1,94.3-128.3,109.1c-86.4,10.5-159.8,34.9-159.8,131
	c0,71.6,34.9,120.5,130.1,120.5c98.7,0,144-48.9,148.4-101.3c0.9-12.2,4.4-18.3,14.8-18.3c8.7,0,12.2,6.1,14,18.3
	c8.7,55.9,23.6,101.3,103,101.3c88.2,0,117.9-41.9,117.9-170.2C1050.2,402.4,1044.9,385,1022.3,385z M730.7,516.8
	c-27.1,0-50.7-8.7-50.7-42.8c0-41,48.9-69.8,108.3-69.8c17.5,0,22.7,11.3,22.7,27.9C811,481.9,775.2,516.8,730.7,516.8L730.7,516.8z
	"/>
<path class="st0" d="M1984.3,180.7c0-4.3,0.4-44.1,15.6-52.7c3-1.6,6.3-2.4,9.7-2.3c8.7,0,17.5,2.6,23.6,2.6
	c14.8,0,20.9-14,20.9-24.5c0-13.1-6.1-23.6-20.9-23.6c-34,0-75.1,3.5-115.2,3.5c-76.8,0-107.4-3.5-153.6-3.5
	c-34,0-35.8,13.1-41.9,44.5c-15.7,82.9-30.5,150.1-48.9,212.1c-12.2,41-18.3,55-35.8,55c-14,0-21-9.6-35.8-55.9
	c-18.3-55-42.8-165-52.4-211.3c-7-35.8-14-44.5-42.8-44.5c-32.3,0-48,3.5-94.3,3.5c-48.9,0-118.7-3.5-173.7-3.5
	c-13.9,0-20.1,10.5-20.1,23.6c0,10.5,6.1,24.5,20.1,24.5c6.1,0,14.8-2.6,23.6-2.6c28.8,0,33.2,30.6,33.2,64.6
	c0,266.3-18.3,340.4-52.4,382.4c-14.8,19.2-24.4,24.4-24.4,39.3c0,11.3,8.7,18.3,20.1,18.3c21.8,0,60.2-1.8,109.1-1.8
	c43.6,0,68.1,1.8,82,1.8s19.2-14,19.2-19.2c0-12.2-0.9-20.1-26.2-36.7c-62.8-45.4-81.2-165.9-81.2-364c0-22.7,3.5-36.7,15.7-36.7
	c7.9,0,15.7,11.3,22.7,26.2c36.7,75.9,98.7,288.1,126.6,392.8c8.7,32.3,8.7,36.7,76.8,36.7c62.8,0,78.6-2.6,84.7-36.7
	c26.2-136.2,66.4-309.9,90.8-385.8c7.9-23.6,19.2-34,27.1-34c15.7,0,17.4,11.3,17.4,45.4c0,173.7-1.8,261.9-6.1,310.8
	c-3.5,41-6.1,55.9-27.9,55.9c-4.4,0-14.8-1.8-22.7-1.8c-14,0-20.1,11.3-20.1,23.6c0,13.1,6.1,23.6,20.1,23.6
	c31.4,0,73.3-1.8,137.9-1.8c66.3,0,120.5,1.8,148.4,1.8c14.8,0,20.9-10.5,20.9-23.6c0-12.2-6.1-23.6-20.9-23.6
	c-7,0-16.6,1.8-20.9,1.8c-6.3,0-11.1-1.2-14.9-4c-14.4-10.5-13.3-44.8-13.1-51.9c1.9-70.2-149.5-106.3-150.8-170
	C1832,294.8,1984.2,251.5,1984.3,180.7z"/>
<path class="st0" d="M2478.4,639c88.2,0,117.8-41.9,117.8-170.2c0-66.3-5.2-83.8-27.9-83.8c-14.8,0-21.8,11.3-21.8,24.5
	c0,17.5,14.8,49.8,14.8,69.8c0,23.6-7,39.3-27.1,39.3c-17.5,0-26.2-14-26.2-42.8c0-24.4,3.5-101.3,3.5-170.2
	c0-96-30.6-159.8-194.7-159.8c-165,0-232.2,57.6-232.2,127.4c0,60.2,34.9,86.4,99.5,86.4c62,0,100.4-23.6,100.4-73.3
	c0-34-18.3-51.5-47.2-56.8c-14.8-2.6-20.1-10.5-20.1-17.5c0-10.5,4.4-20.1,35.8-20.1c66.3,0,103,21,103,86.4
	c0,76-13.1,94.3-128.3,109.1c-86.4,10.5-159.8,34.9-159.8,131c0,71.6,34.9,120.5,130.1,120.5c98.6,0,144-48.9,148.4-101.3
	c0.9-12.2,4.4-18.3,14.8-18.3c8.7,0,12.2,6.1,14,18.3C2384.1,593.6,2398.9,639,2478.4,639z M2276.7,516.8c-27,0-50.6-8.7-50.6-42.8
	c0-41,48.9-69.8,108.2-69.8c17.5,0,22.7,11.3,22.7,27.9C2357,481.9,2321.2,516.8,2276.7,516.8z"/>
<path class="st0" d="M2966.4,679.1c31.8,0,54.8,6.3,65.2,16.5h79.4c5-16.8,7.3-36.8,7.3-60.2c0-69-41-110-122.2-110
	c-75.9,0-187.7,44.5-243.5,44.5c-26.2,0-34.9-12.2-34.9-27.1c0-31.4,29.7-48.9,148.4-48.9c165.9,0,226.1-52.4,226.1-166.7
	c0-82.9-47.1-116.1-81.2-125.7c-13.1-5.2-18.3-10.5-18.3-17.5s3.5-12.2,14.9-12.2c3.5,0,17.4,1.8,31.4,1.8c40.2,0,62-30.6,62-72.5
	C3100.8,41,3054.6,0,2986.5,0c-64.6,0-96.9,24.4-96.9,60.2c0,41,28.8,59.4,73.3,65.5c15.7,1.7,21.8,7,21.8,14.8s-3.5,14-18.3,14
	c-25.3,0-69.8-8.7-120.5-8.7c-133.6,0-212.1,50.6-212.1,165c0,84.7,40.1,130.1,110.8,137.1c11.4,1.7,17.5,9.6,17.5,17.5
	c0,7-6.1,14-16.6,14H2715c-67.2,0-111.7,44.5-111.7,125.7c0,40.1,7.8,70.1,24.6,90.7h247.8C2906.5,686.6,2936.7,679.1,2966.4,679.1z
	 M2864.2,187.7c41.9,0,60.2,31.4,60.2,136.2c0,96-14,117-57.6,117c-58.5,0-62-68.1-62-147.5C2804.9,203.4,2828.5,187.7,2864.2,187.7
	z"/>
<path class="st0" d="M3636.8,385c-14.8,0-21.8,11.3-21.8,24.5c0,17.5,14.8,49.8,14.8,69.8c0,23.6-7,39.3-27.1,39.3
	c-17.5,0-26.2-14-26.2-42.8c0-24.4,3.5-101.3,3.5-170.2c0-96-30.6-159.8-194.7-159.8c-165,0-232.2,57.6-232.2,127.4
	c0,60.2,34.9,86.4,99.5,86.4c62,0,100.4-23.6,100.4-73.3c0-34-18.3-51.5-47.1-56.8c-14.8-2.6-20.1-10.5-20.1-17.5
	c0-10.5,4.4-20.1,35.8-20.1c66.4,0,103,21,103,86.4c0,76-13.1,94.3-128.3,109.1c-86.4,10.5-159.8,34.9-159.8,131
	c0,71.6,34.9,120.5,130.1,120.5c98.6,0,144-48.9,148.4-101.3c0.9-12.2,4.4-18.3,14.8-18.3c8.7,0,12.2,6.1,14,18.3
	c8.7,55.9,23.6,101.3,103,101.3c88.2,0,117.9-41.9,117.9-170.2C3664.8,402.4,3659.5,385,3636.8,385z M3345.3,516.8
	c-27.1,0-50.6-8.7-50.6-42.8c0-41,48.9-69.8,108.3-69.8c17.4,0,22.7,11.3,22.7,27.9C3425.6,481.9,3389.8,516.8,3345.3,516.8
	L3345.3,516.8z"/>
</svg>
