<svg id="Layer_1" data-name="Layer 1" xmlns="http://www.w3.org/2000/svg" viewBox="0 0 188.99 187.43"><title>paleta</title><path d="M172.79,459.33c-16-26.45-40.72-39.76-70.91-43.82C46,408-4.15,451.7-4.57,508.17c.41,4.46.66,8.95,1.26,13.39a93.39,93.39,0,0,0,91,80.54c10.24.12,18.3-3.71,23-12.92,4.53-8.83,3.14-17.32-2.65-25.34-1.08-1.48-1.77-4.29-1.07-5.71s3.32-2.67,5.19-2.81c5.3-.38,10.66.06,16-.2,23.6-1.16,41-12.35,50.78-33.76C188.83,499.79,184.46,478.68,172.79,459.33ZM34,536.81a14.43,14.43,0,0,1-14.08-14.47c.13-7.73,6.92-14.32,14.51-14.06A14.27,14.27,0,0,1,34,536.81Zm9.2-46.75a14.06,14.06,0,1,1,14.34-14.17A14.2,14.2,0,0,1,43.21,490.06Zm37.5-28.27a14.23,14.23,0,1,1,14.38-14.2A14.38,14.38,0,0,1,80.71,461.79Zm47.19,9.36a14.08,14.08,0,1,1,13.92-14.06A14,14,0,0,1,127.9,471.15Z" transform="translate(4.57 -414.67)"/></svg>