<?xml version="1.0" standalone="no"?>
<!DOCTYPE svg PUBLIC "-//W3C//DTD SVG 20010904//EN"
 "http://www.w3.org/TR/2001/REC-SVG-20010904/DTD/svg10.dtd">
<svg version="1.0" xmlns="http://www.w3.org/2000/svg"
 width="3481.000000pt" height="3481.000000pt" viewBox="0 0 3481.000000 3481.000000"
 preserveAspectRatio="xMidYMid meet">
<metadata>
Created by potrace 1.11, written by Peter Selinger 2001-2013
</metadata>
<g transform="translate(0.000000,3481.000000) scale(0.100000,-0.100000)"
fill="#000000" stroke="none">
<path d="M1108 29005 c-2 -1 -28 -5 -58 -8 -364 -36 -686 -249 -866 -572 -58
-103 -118 -260 -138 -359 -38 -186 -41 -216 -41 -411 0 -202 7 -262 45 -416
128 -514 459 -866 915 -975 6 -1 28 -5 50 -8 23 -4 52 -9 65 -12 29 -6 266 -6
295 0 11 2 47 7 80 11 33 3 125 17 205 30 80 13 168 27 195 31 28 3 59 8 70
10 80 16 323 22 400 10 53 -9 153 -35 176 -47 10 -5 29 -14 42 -21 12 -6 34
-18 48 -25 14 -7 56 -41 93 -74 167 -153 267 -379 352 -794 2 -10 6 -37 9 -60
3 -22 8 -47 10 -55 2 -8 7 -40 10 -70 3 -30 8 -71 11 -91 7 -56 21 -204 29
-311 13 -185 18 -496 18 -1068 0 -621 -10 -1943 -18 -2430 -9 -580 -21 -1184
-30 -1469 -3 -102 -7 -271 -10 -376 -3 -104 -7 -269 -10 -365 -4 -96 -8 -231
-10 -300 -2 -69 -6 -188 -9 -265 -4 -77 -8 -196 -11 -265 -3 -69 -7 -181 -10
-250 -3 -69 -7 -172 -10 -230 -3 -58 -7 -154 -10 -215 -3 -60 -7 -155 -10
-210 -3 -55 -8 -143 -10 -195 -5 -95 -11 -207 -21 -350 -2 -41 -6 -116 -9
-166 -2 -51 -6 -126 -9 -168 -4 -42 -9 -111 -12 -153 -3 -43 -7 -112 -10 -153
-4 -81 -11 -174 -20 -285 -3 -38 -7 -95 -9 -125 -6 -95 -23 -312 -30 -390 -6
-60 -12 -129 -20 -230 -6 -68 -13 -145 -20 -220 -2 -25 -7 -72 -10 -105 -6
-67 -12 -132 -20 -202 -6 -55 -11 -100 -20 -198 -3 -38 -8 -81 -10 -95 -2 -14
-6 -52 -10 -85 -8 -80 -14 -133 -20 -175 -2 -19 -7 -60 -10 -90 -3 -30 -7 -66
-10 -80 -2 -14 -7 -54 -11 -90 -3 -36 -8 -72 -9 -81 -3 -15 -7 -49 -20 -157
-3 -24 -7 -53 -10 -65 -2 -12 -7 -44 -10 -72 -7 -57 -72 -503 -80 -543 -4 -23
-21 -123 -41 -247 -2 -16 -6 -41 -9 -55 -3 -14 -7 -41 -10 -60 -3 -19 -8 -42
-10 -50 -2 -8 -7 -31 -9 -50 -3 -19 -8 -46 -11 -60 -3 -14 -8 -41 -11 -60 -5
-33 -101 -495 -110 -532 -2 -10 -6 -28 -9 -40 -2 -13 -8 -36 -12 -53 -4 -16
-7 -32 -8 -35 -1 -3 -4 -18 -8 -35 -4 -16 -9 -39 -12 -50 -2 -11 -11 -45 -19
-75 -8 -30 -17 -66 -20 -80 -8 -39 -60 -232 -99 -365 -248 -844 -569 -1527
-965 -2050 -74 -97 -310 -395 -322 -405 -3 -3 -25 -30 -50 -60 -25 -30 -47
-57 -50 -60 -11 -10 -267 -307 -315 -365 -28 -33 -54 -65 -60 -71 -5 -6 -19
-23 -30 -38 -11 -15 -41 -55 -66 -89 -161 -219 -263 -459 -296 -697 -10 -70
-10 -349 0 -417 21 -149 112 -371 199 -485 154 -202 351 -339 593 -413 50 -16
99 -29 111 -30 11 -2 47 -9 80 -16 67 -15 573 -17 1069 -5 160 4 360 9 445 11
85 2 279 7 430 10 527 13 966 22 1510 31 354 5 1964 5 2255 0 250 -5 589 -13
855 -22 539 -16 696 -22 875 -30 284 -12 648 -12 740 1 119 17 221 48 327 100
128 64 202 118 308 224 183 185 305 413 366 686 11 48 13 363 4 443 -46 382
-166 638 -435 921 -84 88 -297 281 -311 281 -4 0 -12 6 -18 14 -17 20 -196
153 -341 251 -387 263 -660 519 -984 920 -97 121 -271 376 -385 563 -47 78
-86 144 -86 146 0 2 -21 41 -46 87 -316 570 -609 1339 -841 2204 -19 72 -38
146 -43 165 -4 19 -27 114 -50 210 -23 96 -43 182 -45 190 -2 8 -10 45 -19 81
-8 37 -17 78 -20 90 -3 13 -23 112 -45 219 -22 107 -43 211 -46 230 -3 19 -8
42 -10 50 -2 8 -6 26 -9 40 -2 14 -11 63 -20 110 -8 47 -18 101 -21 120 -8 49
-24 140 -30 170 -3 14 -8 43 -10 65 -3 22 -12 76 -20 120 -8 44 -17 97 -20
118 -12 87 -17 115 -25 167 -5 30 -12 75 -14 100 -3 25 -8 56 -10 70 -5 26
-25 162 -31 215 -2 17 -6 46 -9 65 -18 135 -28 206 -31 234 -2 17 -6 54 -10
81 -3 28 -11 86 -16 130 -6 44 -12 94 -14 110 -11 103 -26 246 -31 279 -3 22
-7 60 -9 85 -2 25 -6 66 -9 91 -8 62 -14 123 -21 200 -3 36 -8 79 -10 95 -2
17 -7 68 -10 115 -3 47 -8 95 -10 107 -2 12 -7 66 -10 120 -4 54 -9 106 -11
115 -1 10 -6 64 -9 120 -4 57 -8 110 -10 118 -2 8 -7 60 -10 115 -4 55 -8 120
-11 145 -2 25 -6 83 -9 130 -3 47 -7 108 -10 135 -2 28 -7 97 -10 155 -4 58
-8 124 -10 148 -2 23 -7 95 -10 160 -3 64 -8 137 -10 162 -2 25 -6 99 -10 165
-7 156 -13 268 -19 385 -3 52 -8 154 -11 225 -3 72 -7 173 -10 225 -15 292
-33 871 -50 1585 -26 1094 -26 2638 0 2865 40 338 118 546 198 526 13 -3 51
-32 84 -63 94 -89 192 -226 298 -413 46 -80 235 -454 235 -464 0 -2 24 -55 54
-118 29 -62 74 -162 101 -223 26 -60 55 -128 65 -150 64 -143 294 -704 375
-915 18 -47 67 -175 109 -285 90 -233 168 -439 206 -545 15 -41 30 -82 33 -90
9 -21 114 -310 147 -405 16 -44 52 -145 80 -225 48 -133 133 -375 197 -559
118 -338 208 -606 448 -1331 153 -459 281 -844 285 -855 4 -11 29 -87 55 -170
26 -82 98 -310 160 -505 62 -195 137 -429 165 -520 29 -91 65 -205 80 -255 97
-307 138 -440 215 -690 210 -680 445 -1452 501 -1645 7 -25 51 -173 99 -330
47 -157 88 -293 90 -303 2 -10 16 -57 31 -105 15 -48 30 -100 34 -117 5 -16
28 -97 53 -180 25 -82 70 -235 101 -340 30 -104 89 -307 131 -450 42 -143 78
-267 80 -275 2 -8 49 -172 105 -365 56 -192 108 -375 116 -405 8 -30 19 -68
24 -85 17 -53 158 -548 165 -575 2 -8 13 -49 25 -90 12 -41 27 -97 35 -125 7
-27 28 -99 45 -160 18 -60 35 -123 40 -140 10 -42 268 -968 285 -1030 15 -49
163 -595 171 -625 1 -8 30 -114 63 -235 57 -211 76 -281 122 -453 126 -469
187 -652 285 -846 93 -184 232 -357 369 -457 33 -24 62 -47 65 -51 3 -4 66
-38 140 -76 112 -57 272 -118 356 -137 11 -2 69 -15 129 -29 61 -14 128 -27
150 -31 23 -3 52 -7 65 -10 46 -9 238 -32 321 -39 422 -36 831 -47 1669 -47
1021 0 1473 17 1895 71 227 30 235 31 310 47 39 8 81 17 95 19 174 34 390 107
555 189 426 213 686 548 850 1096 14 46 27 93 29 104 2 11 11 47 19 80 16 62
23 95 33 155 3 19 7 43 10 52 3 10 7 29 10 43 6 35 35 185 49 255 3 14 8 39
11 55 8 46 43 224 69 355 8 41 16 86 19 100 2 14 39 196 80 405 42 209 78 389
80 400 2 11 20 99 39 195 20 96 38 187 41 203 3 15 9 39 12 55 3 15 25 126 50
247 25 121 63 306 84 410 21 105 57 278 80 385 66 315 90 433 96 469 3 19 9
44 14 55 4 12 8 24 8 29 0 4 3 20 6 35 3 15 8 38 10 52 3 14 34 162 70 330 36
168 67 316 70 330 3 14 39 182 81 374 41 192 77 358 79 370 12 57 107 490 121
551 9 39 19 79 21 90 2 11 11 52 20 91 8 39 16 77 18 85 1 8 10 50 20 94 10
44 34 150 52 235 19 85 43 191 54 235 10 44 21 94 24 110 4 24 38 176 61 275
58 251 204 891 211 930 3 14 10 43 16 65 5 22 11 47 13 55 9 44 47 210 56 245
6 22 13 51 15 65 3 14 7 33 10 42 3 9 6 25 9 35 8 43 85 372 90 385 2 7 6 24
9 38 2 14 14 66 26 115 12 50 24 100 26 113 2 12 23 98 45 190 22 92 49 205
60 252 11 47 24 103 30 125 5 22 12 49 14 60 12 59 236 978 321 1320 25 99 47
191 50 205 3 14 10 43 16 65 7 22 13 47 14 55 1 8 11 49 22 90 12 41 23 86 26
100 3 14 19 79 36 144 16 66 66 261 111 435 44 174 84 330 89 346 5 17 11 41
14 55 6 31 119 462 180 685 2 6 6 24 11 40 30 117 230 849 292 1065 41 146 76
272 78 280 5 18 71 246 110 375 15 50 32 106 37 125 22 80 172 563 205 660
137 407 324 750 512 941 49 49 110 100 141 117 48 26 62 29 110 25 72 -7 106
-25 129 -71 20 -40 46 -126 55 -182 3 -19 8 -46 10 -60 12 -65 15 -95 31 -265
15 -162 19 -602 18 -2010 -1 -3158 -26 -5975 -68 -7655 -3 -102 -7 -284 -10
-405 -3 -121 -8 -285 -10 -365 -3 -80 -7 -224 -10 -320 -3 -96 -8 -224 -10
-285 -16 -440 -16 -428 -30 -760 -10 -225 -24 -495 -30 -585 -3 -36 -7 -112
-10 -170 -3 -58 -7 -132 -10 -165 -2 -33 -7 -100 -10 -150 -12 -178 -15 -231
-20 -275 -2 -25 -7 -81 -10 -125 -3 -44 -8 -100 -10 -125 -3 -25 -7 -74 -10
-110 -2 -36 -7 -92 -10 -125 -3 -33 -8 -80 -10 -105 -10 -113 -23 -246 -30
-300 -2 -19 -7 -62 -10 -95 -4 -33 -15 -127 -26 -210 -11 -82 -22 -166 -25
-185 -17 -134 -69 -372 -105 -482 -72 -220 -162 -319 -320 -352 -60 -12 -273
-13 -354 -1 -38 5 -162 19 -283 31 -32 3 -73 7 -92 9 -65 8 -285 19 -370 19
-221 0 -398 -39 -575 -126 -111 -55 -196 -118 -291 -213 -117 -119 -185 -225
-274 -430 -21 -49 -63 -208 -76 -291 -3 -20 -8 -46 -11 -58 -12 -48 -10 -423
2 -501 7 -44 16 -98 19 -120 13 -76 78 -271 122 -358 75 -153 203 -308 344
-419 54 -42 266 -143 350 -167 169 -47 213 -50 875 -44 341 2 690 6 775 8
1949 43 2901 55 4365 55 1425 0 2239 -9 4190 -45 829 -15 1031 -18 1475 -19
272 0 520 3 550 7 127 18 249 54 365 106 68 31 208 118 213 132 2 5 8 9 14 9
19 0 172 166 220 237 59 88 106 174 130 237 21 55 58 169 63 195 2 9 10 48 19
86 22 103 30 194 30 345 0 236 -28 407 -97 591 -85 225 -222 410 -412 554
-117 89 -349 186 -500 210 -156 25 -393 25 -600 0 -16 -2 -59 -6 -95 -10 -36
-3 -76 -7 -90 -10 -24 -4 -45 -6 -175 -21 -122 -14 -306 -7 -380 15 -55 15
-132 59 -161 92 -16 17 -37 40 -46 50 -10 11 -18 21 -18 24 0 2 -13 26 -28 52
-66 114 -132 306 -167 488 -9 45 -36 220 -40 254 -2 20 -6 63 -10 95 -4 32 -9
77 -11 100 -3 23 -6 226 -9 451 -3 364 -9 526 -19 582 -2 10 -7 43 -11 73 -4
30 -14 84 -22 120 -8 36 -17 76 -19 90 -9 51 -77 259 -119 361 -126 308 -304
594 -576 920 -121 145 -482 510 -654 660 -165 144 -501 418 -595 484 -16 11
-57 42 -92 68 -34 27 -74 57 -88 67 -14 10 -52 38 -85 63 -54 40 -439 313
-475 338 -8 5 -58 39 -110 76 -88 61 -194 134 -485 331 -60 42 -144 98 -185
127 -41 28 -118 80 -170 115 -52 36 -97 67 -100 70 -3 3 -41 30 -85 60 -204
138 -806 576 -825 600 -3 3 -34 28 -70 55 -36 28 -67 52 -70 55 -3 3 -45 39
-95 80 -261 216 -435 383 -659 630 -257 283 -456 647 -511 935 -24 128 -25
338 -1 445 3 14 8 34 10 45 30 151 116 362 208 513 21 34 38 64 38 67 0 6 115
169 169 240 143 186 424 484 638 675 58 52 115 104 127 115 12 11 75 65 141
120 66 55 122 103 125 106 3 3 86 69 185 148 99 78 187 148 195 154 8 7 62 48
120 91 58 44 117 89 131 100 15 12 37 29 50 38 13 9 89 66 169 125 80 59 155
115 167 123 12 8 129 94 260 190 131 96 267 196 303 223 36 26 74 54 85 62 64
45 572 428 690 519 596 464 1082 905 1404 1276 112 130 112 129 186 225 38 50
74 95 78 100 5 6 40 55 79 110 126 181 252 402 328 577 22 51 45 102 50 113
10 20 68 185 76 215 43 163 64 249 69 278 3 21 9 62 14 92 18 104 23 165 26
325 4 188 15 445 20 489 2 17 6 65 10 106 3 41 7 86 9 100 3 14 7 48 11 75 57
455 186 860 319 1001 70 74 134 97 271 97 94 -1 187 -7 245 -17 28 -5 159 -24
205 -30 17 -2 41 -7 55 -10 14 -3 42 -8 63 -11 20 -3 52 -7 70 -10 119 -18
179 -23 315 -23 215 0 364 35 540 124 328 168 567 490 667 898 33 136 39 196
40 376 0 161 -7 254 -25 335 -5 22 -12 56 -15 75 -10 60 -66 222 -103 295 -84
169 -216 332 -352 432 -116 86 -327 180 -446 199 -21 3 -41 7 -45 9 -20 13
-198 20 -474 19 -363 -1 -675 -8 -1185 -29 -412 -17 -609 -25 -690 -30 -41 -2
-145 -7 -230 -10 -85 -3 -184 -8 -220 -10 -36 -2 -137 -7 -225 -10 -88 -3
-198 -8 -245 -10 -47 -2 -177 -7 -290 -11 -113 -3 -234 -8 -270 -9 -810 -32
-2779 -18 -4100 30 -165 6 -316 11 -550 20 -80 3 -203 7 -275 10 -71 3 -186 8
-255 10 -69 3 -177 7 -240 10 -107 4 -236 8 -580 20 -776 26 -1697 26 -1837 1
-10 -2 -45 -7 -78 -11 -33 -3 -89 -13 -125 -20 -37 -8 -77 -16 -90 -18 -105
-20 -299 -86 -403 -139 -350 -176 -567 -454 -724 -928 -32 -96 -104 -363 -117
-435 -3 -16 -10 -52 -16 -80 -6 -27 -12 -59 -14 -70 -3 -11 -9 -40 -15 -65 -5
-25 -12 -58 -15 -75 -3 -16 -8 -41 -11 -55 -3 -14 -19 -97 -35 -185 -17 -88
-45 -232 -62 -320 -17 -88 -32 -169 -33 -180 -2 -11 -13 -67 -25 -125 -12 -58
-23 -114 -24 -125 -2 -11 -7 -36 -10 -55 -4 -19 -8 -42 -10 -50 -1 -8 -8 -40
-14 -70 -6 -30 -13 -66 -16 -80 -2 -14 -16 -86 -31 -160 -34 -170 -33 -165
-45 -225 -5 -27 -12 -61 -14 -75 -3 -14 -23 -117 -45 -230 -23 -113 -44 -218
-47 -235 -3 -16 -9 -48 -14 -70 -5 -22 -12 -56 -15 -75 -3 -19 -11 -55 -16
-80 -6 -25 -13 -56 -15 -70 -3 -14 -16 -79 -30 -145 -14 -66 -28 -131 -30
-145 -9 -42 -35 -174 -39 -195 -3 -11 -18 -83 -34 -160 -16 -77 -32 -151 -35
-165 -2 -14 -9 -45 -15 -70 -5 -25 -12 -58 -15 -75 -3 -16 -8 -39 -10 -50 -3
-11 -20 -94 -40 -185 -19 -91 -48 -226 -65 -300 -16 -74 -32 -146 -35 -160 -3
-20 -36 -169 -72 -325 -2 -11 -7 -33 -10 -50 -3 -16 -14 -66 -24 -110 -15 -60
-123 -528 -165 -715 -32 -143 -88 -376 -91 -381 -1 -3 -6 -21 -9 -40 -3 -19
-21 -95 -40 -169 -19 -74 -36 -146 -39 -160 -11 -56 -123 -506 -136 -545 -5
-16 -11 -41 -14 -55 -2 -14 -14 -61 -26 -105 -12 -44 -23 -87 -25 -95 -1 -8
-20 -78 -40 -155 -20 -77 -41 -158 -46 -180 -39 -161 -257 -947 -375 -1355
-41 -140 -76 -262 -78 -270 -6 -25 -101 -334 -150 -490 -309 -985 -488 -1349
-719 -1459 -118 -57 -273 -59 -379 -5 -74 38 -166 138 -245 269 -7 11 -50 97
-97 190 -125 251 -285 666 -455 1182 -80 242 -214 656 -217 668 -1 6 -25 84
-54 175 -28 91 -53 172 -55 180 -2 8 -22 78 -45 155 -23 77 -61 212 -86 300
-25 88 -49 174 -54 190 -11 31 -59 208 -65 235 -2 8 -22 80 -44 160 -66 241
-133 494 -211 795 -32 127 -63 242 -69 258 -6 15 -9 27 -6 27 2 0 -1 15 -6 33
-6 17 -12 39 -14 47 -2 8 -13 53 -25 100 -11 47 -23 92 -25 100 -2 8 -17 71
-35 140 -18 69 -33 132 -35 140 -2 8 -29 119 -60 245 -32 127 -58 235 -59 240
-4 24 -89 374 -101 420 -14 49 -34 136 -136 570 -82 348 -101 429 -104 445 -4
21 -43 187 -55 235 -6 22 -19 81 -30 130 -15 71 -74 328 -95 415 -26 110 -242
1085 -275 1240 -5 25 -11 54 -14 65 -4 18 -22 100 -86 395 -11 52 -23 109 -26
125 -3 17 -9 46 -14 65 -5 19 -28 125 -50 235 -23 110 -43 207 -45 215 -2 8
-22 107 -45 220 -44 212 -127 548 -174 704 -36 119 -128 350 -182 459 -156
310 -375 539 -639 666 -127 61 -253 108 -342 126 -16 3 -32 7 -38 9 -44 12
-160 33 -225 42 -25 3 -56 7 -70 10 -149 25 -858 24 -1367 -1 -156 -8 -400
-22 -523 -30 -47 -4 -119 -8 -160 -10 -41 -3 -106 -7 -145 -9 -93 -7 -231 -16
-330 -21 -44 -2 -125 -7 -180 -10 -939 -51 -2091 -51 -3900 0 -93 3 -253 7
-355 10 -102 3 -259 7 -350 10 -91 3 -250 7 -355 10 -104 3 -262 7 -350 10
-88 3 -245 7 -350 10 -104 3 -273 7 -375 10 -102 3 -275 7 -385 10 -110 2
-303 7 -430 10 -126 3 -354 8 -505 11 -319 6 -1407 13 -1412 9z"/>
</g>
</svg>
